<svg width="40" height="40" viewBox="0 0 40 40" fill="none" xmlns="http://www.w3.org/2000/svg">
<path d="M29.9454 17.828C29.4391 18.3364 29.0515 18.95 28.81 19.6249C28.5685 20.3 28.4792 21.0199 28.5482 21.7333L28.5242 21.7093C28.5952 22.5492 28.4817 23.3943 28.1917 24.1859C27.9017 24.9773 27.4422 25.6961 26.8453 26.2921C26.2482 26.888 25.5282 27.3468 24.7351 27.6361C23.9423 27.9256 23.0956 28.0389 22.2543 27.968L22.2784 27.992C21.272 27.8985 20.2613 28.1171 19.3839 28.618C18.5066 29.1189 17.8053 29.8777 17.3759 30.7911C16.9465 31.7044 16.8096 32.7276 16.984 33.7215C17.1586 34.7152 17.6358 35.6311 18.3508 36.3441C19.0658 37.0572 19.9837 37.5328 20.9794 37.706C21.9752 37.8793 23.0001 37.7417 23.9146 37.3123C24.8292 36.8827 25.5887 36.1821 26.0897 35.3059C26.5907 34.4296 26.8088 33.4205 26.7143 32.416L26.7397 32.44C26.6686 31.6003 26.782 30.7551 27.072 29.9635C27.362 29.172 27.8216 28.4532 28.4185 27.8572C29.0156 27.2613 29.7357 26.8025 30.5285 26.5132C31.3216 26.2237 32.1681 26.1104 33.0095 26.1813L32.9841 26.1573C33.8061 26.2311 34.6336 26.0965 35.3897 25.7661C36.1458 25.4357 36.8061 24.9201 37.3094 24.2672C37.8127 23.6143 38.1429 22.8449 38.269 22.0308C38.3952 21.2165 38.3135 20.3837 38.0314 19.6093C37.7493 18.8351 37.2759 18.1444 36.6552 17.6013C36.0345 17.0583 35.2865 16.6804 34.4805 16.5028C33.6746 16.3252 32.8367 16.3535 32.0446 16.5851C31.2525 16.8168 30.5319 17.2443 29.9494 17.828H29.9454Z" fill="black"/>
<path d="M20.0918 24.848L20.0664 24.824C20.7814 24.8959 21.5035 24.8083 22.1806 24.5675C22.8575 24.3267 23.4725 23.9388 23.9808 23.4317C24.4891 22.9247 24.8783 22.3111 25.1199 21.6355C25.3617 20.9599 25.45 20.2392 25.3785 19.5253L25.4039 19.5493C25.3329 18.7095 25.4464 17.8644 25.7362 17.0728C26.0262 16.2813 26.4858 15.5625 27.0828 14.9665C27.6798 14.3707 28.3999 13.9119 29.1928 13.6225C29.9858 13.333 30.8324 13.2198 31.6738 13.2907L31.6484 13.2667C32.6548 13.3611 33.6658 13.1432 34.5437 12.6428C35.4216 12.1425 36.1234 11.384 36.5535 10.4708C36.9836 9.55767 37.1211 8.53429 36.9472 7.54028C36.7733 6.54627 36.2964 5.63003 35.5815 4.91651C34.8668 4.203 33.9489 3.72695 32.9531 3.55332C31.9573 3.37968 30.9322 3.5169 30.0173 3.94626C29.1025 4.3756 28.3428 5.0762 27.8415 5.95248C27.3402 6.82875 27.1219 7.83804 27.2165 8.84268L27.1924 8.81735C27.2636 9.6572 27.1504 10.5025 26.8605 11.2941C26.5707 12.0857 26.111 12.8046 25.5141 13.4007C24.917 13.9965 24.1968 14.4553 23.4038 14.7447C22.6107 15.034 21.764 15.1471 20.9226 15.076L20.9466 15.1013C20.2316 15.0295 19.5094 15.1171 18.8325 15.3579C18.1555 15.5985 17.5406 15.9865 17.0322 16.4936C16.5238 17.0007 16.1347 17.6143 15.893 18.2899C15.6513 18.9655 15.563 19.6861 15.6345 20.4L15.6105 20.376C15.6813 21.2157 15.5676 22.0608 15.2776 22.8523C14.9875 23.6436 14.528 24.3624 13.9311 24.9583C13.3341 25.5541 12.6141 26.0128 11.8213 26.3024C11.0284 26.5919 10.1819 26.7053 9.34062 26.6347L9.36466 26.6587C8.35823 26.5643 7.34713 26.7821 6.46928 27.2825C5.59145 27.7829 4.8896 28.5413 4.45949 29.4545C4.02936 30.3677 3.89189 31.3911 4.06584 32.3851C4.23979 33.3791 4.71669 34.2953 5.43147 35.0088C6.14627 35.7224 7.06415 36.1984 8.05993 36.372C9.05572 36.5456 10.0809 36.4084 10.9957 35.9791C11.9105 35.5497 12.6703 34.8492 13.1716 33.9729C13.6729 33.0965 13.8911 32.0873 13.7966 31.0827L13.8219 31.1067C13.7509 30.2668 13.8644 29.4217 14.1544 28.6301C14.4442 27.8387 14.9039 27.1199 15.5008 26.5239C16.0979 25.928 16.8179 25.4692 17.6108 25.1799C18.4038 24.8904 19.2504 24.7771 20.0918 24.848Z" fill="black"/>
<path d="M11.1398 22.172C11.6461 21.6638 12.0337 21.0502 12.275 20.3751C12.5162 19.7 12.6052 18.98 12.5356 18.2667L12.561 18.2907C12.4899 17.4507 12.6034 16.6052 12.8935 15.8135C13.1837 15.0218 13.6435 14.3028 14.2408 13.7068C14.8381 13.1108 15.5585 12.6522 16.3518 12.3629C17.145 12.0736 17.992 11.9607 18.8335 12.032L18.8081 12.008C19.8142 12.1021 20.8249 11.8841 21.7024 11.3838C22.5798 10.8835 23.2812 10.1252 23.7112 9.21233C24.141 8.29945 24.2783 7.27645 24.1044 6.28281C23.9305 5.28917 23.4536 4.37327 22.7392 3.66002C22.0247 2.94677 21.107 2.47087 20.1117 2.29725C19.1163 2.12361 18.0914 2.2607 17.177 2.68979C16.2624 3.11889 15.5028 3.81911 15.0016 4.69498C14.5003 5.57085 14.2819 6.57973 14.3762 7.58402L14.3522 7.56002C14.4233 8.39982 14.3097 9.24498 14.0197 10.0365C13.7298 10.828 13.2703 11.5468 12.6733 12.1428C12.0763 12.7387 11.3562 13.1974 10.5632 13.4868C9.77031 13.7763 8.92366 13.8896 8.08236 13.8187L8.1064 13.8427C7.28436 13.7691 6.45701 13.9039 5.70102 14.2344C4.94503 14.565 4.28486 15.0807 3.78168 15.7338C3.2785 16.3867 2.94861 17.156 2.82254 17.9702C2.69649 18.7844 2.77836 19.6172 3.06055 20.3914C3.34275 21.1656 3.81617 21.8562 4.43691 22.3991C5.05766 22.9422 5.80566 23.3199 6.6116 23.4975C7.41753 23.675 8.25533 23.6466 9.04737 23.415C9.8394 23.1832 10.56 22.7558 11.1425 22.172H11.1398Z" fill="black"/>
</svg>
